# xmcd
#
# Track frame offsets:
#  150
#  17365
#  30619
#  43592
#  59587
#  76015
#  94033
#  111999
#  128328
#  144874
#  162987
#  179343
#  199860
#  221406
#  236782
#
# Disc length: 3369 seconds
#
# Revision: 1
# Processed by: cddbd v1.5.1PL0 Copyright (c) Steve Scherf et al.
# Submitted via: Collectorz.com_Music_Collector 6.9
#
DISCID=bf0d270f
DTITLE=Brittany Wells - Loving Every Minute Of It
DYEAR=2005
DGENRE=
TTITLE0=Too Long
TTITLE1=Loving Every Minute Of It
TTITLE2=Kick Down The Door
TTITLE3=He's Hers
TTITLE4=You Make Me A Wreck
TTITLE5=That's What I Said
TTITLE6=From Harm's Way
TTITLE7=Somebody'd Somebody
TTITLE8=All The Way
TTITLE9=In A Heartbeat
TTITLE10=Shoes
TTITLE11=Say Anything
TTITLE12=Bittersweet
TTITLE13=I Knew You When
TTITLE14=Somebody's Somebody (Dance Edit)
EXTD=
EXTT0=
EXTT1=
EXTT2=
EXTT3=
EXTT4=
EXTT5=
EXTT6=
EXTT7=
EXTT8=
EXTT9=
EXTT10=
EXTT11=
EXTT12=
EXTT13=
EXTT14=
PLAYORDER=
